# xmcd CD database file
#
# Track frame offsets:
#	183
#	19583
#	36633
#	51760
#	68003
#	85983
#	106588
#	124878
#	141718
#	160543
#	177708
#	194658
#	213558
#	231733
#	249008
#	269948
#
# Disc length: 3758 seconds
#
# Revision: 3
# Processed by: cddbd v1.4PL0 Copyright (c) Steve Scherf et al.
# Submitted via: CDex 1.51
#
DISCID=e20eac10,f80eac10
DTITLE=Various Artist - Formel Eins - Direct Hits!
DYEAR=1991
DGENRE=Pop
TTITLE0=Heavy D and The Boyz - Now That We Found Love
TTITLE1=Crystal Waters - Gypsy Woman (La da dee la da da)
TTITLE2=Jesse Lee Davis - Get Up On This!
TTITLE3=Incognito ft. Jocelyn Brown - Always There
TTITLE4=Omar - There's Nothing Like This
TTITLE5=Scorpions - Send Me An Angle
TTITLE6=Tom Petty and The Heartbreakers - Learning To Fly
TTITLE7=Extreme - More Than Words
TTITLE8=OMD - Pandora's Box
TTITLE9=Amy Grant - Every Heartbeat
TTITLE10=Father Father - Love, Life And Life Loving
TTITLE11=Terry Ronald - Calm The Rage
TTITLE12=Young Disciples - Apparontly Nothin'
TTITLE13=LaTour - Invalved
TTITLE14=Jimmy Somerville - Run From Love
TTITLE15=Soft Cell and Marc Almond - Tainted Love '91
EXTD=YEAR: 1991
EXTT0=
EXTT1=
EXTT2=
EXTT3=
EXTT4=
EXTT5=
EXTT6=
EXTT7=
EXTT8=
EXTT9=
EXTT10=
EXTT11=
EXTT12=
EXTT13=
EXTT14=
EXTT15=
PLAYORDER=
